<svg width="333" height="141" viewBox="0 0 333 141" fill="none" xmlns="http://www.w3.org/2000/svg">
<path d="M29.0233 33.5H83.5233C93.1883 33.5 101.023 41.335 101.023 51C101.023 60.665 93.1883 68.5 83.5233 68.5H29.0233V33.5Z" fill="#0D2445"/>
<path d="M61 76.5V101.134C61 104.64 57.8926 107.5 54.0834 107.5H29.0233V82.8661C29.0233 79.3601 32.1308 76.5 35.9399 76.5H61Z" fill="#0D2445"/>
<circle cx="84.5" cy="92" r="15.5" fill="#0D2445"/>
<path d="M134.48 95V48.92H153.52C153.968 48.92 154.544 48.9413 155.248 48.984C155.952 49.0053 156.603 49.0693 157.2 49.176C159.867 49.5813 162.064 50.4667 163.792 51.832C165.541 53.1973 166.832 54.9253 167.664 57.016C168.517 59.0853 168.944 61.3893 168.944 63.928C168.944 67.6827 167.995 70.9147 166.096 73.624C164.197 76.312 161.285 77.976 157.36 78.616L154.064 78.904H142.192V95H134.48ZM160.944 95L151.856 76.248L159.696 74.52L169.68 95H160.944ZM142.192 71.704H153.2C153.627 71.704 154.107 71.6827 154.64 71.64C155.173 71.5973 155.664 71.512 156.112 71.384C157.392 71.064 158.395 70.4987 159.12 69.688C159.867 68.8773 160.389 67.96 160.688 66.936C161.008 65.912 161.168 64.9093 161.168 63.928C161.168 62.9467 161.008 61.944 160.688 60.92C160.389 59.8747 159.867 58.9467 159.12 58.136C158.395 57.3253 157.392 56.76 156.112 56.44C155.664 56.312 155.173 56.2373 154.64 56.216C154.107 56.1733 153.627 56.152 153.2 56.152H142.192V71.704ZM192.442 95.96C188.943 95.96 185.871 95.2027 183.226 93.688C180.581 92.1733 178.511 90.072 177.018 87.384C175.546 84.696 174.81 81.6027 174.81 78.104C174.81 74.328 175.535 71.0533 176.986 68.28C178.437 65.4853 180.453 63.32 183.034 61.784C185.615 60.248 188.602 59.48 191.994 59.48C195.578 59.48 198.618 60.3227 201.114 62.008C203.631 63.672 205.498 66.0293 206.714 69.08C207.93 72.1307 208.389 75.7253 208.09 79.864H200.442V77.048C200.421 73.2933 199.759 70.552 198.458 68.824C197.157 67.096 195.109 66.232 192.314 66.232C189.157 66.232 186.81 67.2133 185.274 69.176C183.738 71.1173 182.97 73.9653 182.97 77.72C182.97 81.2187 183.738 83.928 185.274 85.848C186.81 87.768 189.05 88.728 191.994 88.728C193.893 88.728 195.525 88.312 196.89 87.48C198.277 86.6267 199.343 85.4 200.09 83.8L207.706 86.104C206.383 89.2187 204.335 91.64 201.562 93.368C198.81 95.096 195.77 95.96 192.442 95.96ZM180.538 79.864V74.04H204.314V79.864H180.538ZM223.324 95L210.78 60.44H218.492L227.196 85.496L235.868 60.44H243.612L231.068 95H223.324ZM249.995 95V47.96H257.707V95H249.995ZM282.557 95.96C279.101 95.96 276.082 95.1813 273.501 93.624C270.919 92.0667 268.914 89.9227 267.485 87.192C266.077 84.44 265.373 81.2827 265.373 77.72C265.373 74.0933 266.098 70.9147 267.549 68.184C268.999 65.4533 271.015 63.32 273.597 61.784C276.178 60.248 279.165 59.48 282.557 59.48C286.034 59.48 289.063 60.2587 291.645 61.816C294.226 63.3733 296.231 65.528 297.661 68.28C299.09 71.0107 299.805 74.1573 299.805 77.72C299.805 81.304 299.079 84.472 297.629 87.224C296.199 89.9547 294.194 92.0987 291.613 93.656C289.031 95.192 286.013 95.96 282.557 95.96ZM282.557 88.728C285.629 88.728 287.911 87.704 289.405 85.656C290.898 83.608 291.645 80.9627 291.645 77.72C291.645 74.3707 290.887 71.704 289.373 69.72C287.858 67.7147 285.586 66.712 282.557 66.712C280.487 66.712 278.781 67.1813 277.437 68.12C276.114 69.0373 275.133 70.328 274.493 71.992C273.853 73.6347 273.533 75.544 273.533 77.72C273.533 81.0693 274.29 83.7467 275.805 85.752C277.341 87.736 279.591 88.728 282.557 88.728Z" fill="#0D2445"/>
</svg>
